# xmcd CD database file
# Copyright (C) 1995-1998 Ti Kan
#
# Track frame offsets:
#	200
#	17827
#	40620
#	68287
#
# Disc length: 1187 seconds
#
# Revision: 1
# Processed by: cddbd v1.4b41PL1 Copyright (c) Steve Scherf et al.
# Submitted via: CDex 1.30
#
DISCID=2204a104
DTITLE=Oui 3 - arms of solitude
DYEAR=1993
DGENRE=Blues
TTITLE0=arms of solitude (7" edit)
TTITLE1=dub in solitude
TTITLE2=arms of solitude (orange hill indica mix)
TTITLE3=for what it's worth
EXTD=\nYEAR: 1993  ID3G:   0
EXTT0=
EXTT1=
EXTT2=
EXTT3=
PLAYORDER=
